<svg xmlns="http://www.w3.org/2000/svg" width="20.378" height="24.401" viewBox="0 0 20.378 24.401">
  <g id="lightbulb" transform="translate(0.102 0.1)">
    <g id="Group_797" data-name="Group 797">
      <g id="Group_796" data-name="Group 796">
        <path id="Path_351" data-name="Path 351" d="M111.553,93.2a6.233,6.233,0,0,0-4.119,10.9,4.68,4.68,0,0,1,.873,3.112.371.371,0,0,0,.112.291.413.413,0,0,0,.269.112H114.4a.371.371,0,0,0,.269-.112.426.426,0,0,0,.112-.291c0-.022-.112-2.127.873-3.112l.067-.067A6.214,6.214,0,0,0,111.553,93.2Zm3.582,10.32c-.022.022-.067.067-.067.09a5.227,5.227,0,0,0-1.052,3.224h-4.948a5.2,5.2,0,0,0-1.119-3.313,5.451,5.451,0,1,1,7.186,0Z" transform="translate(-101.447 -87.984)" fill="currentColor" stroke="#181a22" stroke-width="0.2"/>
        <path id="Path_352" data-name="Path 352" d="M209.71,121.6a.381.381,0,0,0,0,.761,4.075,4.075,0,0,1,4.074,4.074.381.381,0,0,0,.761,0A4.815,4.815,0,0,0,209.71,121.6Z" transform="translate(-199.626 -114.794)" fill="currentColor" stroke="#181a22" stroke-width="0.2"/>
        <path id="Path_353" data-name="Path 353" d="M160.839,358.4h-4.97a.94.94,0,1,0,0,1.88h4.948a.966.966,0,0,0,.963-.94A.946.946,0,0,0,160.839,358.4Zm0,1.1h-4.97a.177.177,0,0,1-.179-.179.165.165,0,0,1,.179-.179h4.948a.177.177,0,0,1,.179.179A.16.16,0,0,1,160.839,359.5Z" transform="translate(-148.271 -338.341)" fill="currentColor" stroke="#181a22" stroke-width="0.2"/>
        <path id="Path_354" data-name="Path 354" d="M172.562,398.8h-3.492a.94.94,0,0,0,0,1.881h3.492a.946.946,0,0,0,.94-.94A.932.932,0,0,0,172.562,398.8Zm0,1.1h-3.492a.177.177,0,0,1-.179-.179.165.165,0,0,1,.179-.179h3.492a.179.179,0,1,1,0,.358Z" transform="translate(-160.732 -376.48)" fill="currentColor" stroke="#181a22" stroke-width="0.2"/>
        <path id="Path_355" data-name="Path 355" d="M209.71,3.358a.377.377,0,0,0,.381-.381V.381a.381.381,0,0,0-.761,0v2.6A.392.392,0,0,0,209.71,3.358Z" transform="translate(-199.626)" fill="currentColor" stroke="#181a22" stroke-width="0.2"/>
        <path id="Path_356" data-name="Path 356" d="M295.159,33.185a.361.361,0,0,0-.515.09l-1.433,2.149a.369.369,0,0,0,.09.537.361.361,0,0,0,.2.067.357.357,0,0,0,.313-.179l1.433-2.149A.347.347,0,0,0,295.159,33.185Z" transform="translate(-278.74 -31.26)" fill="currentColor" stroke="#181a22" stroke-width="0.2"/>
        <path id="Path_357" data-name="Path 357" d="M104.823,33.859a.361.361,0,0,0,.2-.067.392.392,0,0,0,.112-.537l-1.388-2.172a.388.388,0,0,0-.649.425l1.388,2.172A.371.371,0,0,0,104.823,33.859Z" transform="translate(-99.285 -29.18)" fill="currentColor" stroke="#181a22" stroke-width="0.2"/>
        <path id="Path_358" data-name="Path 358" d="M38.8,104.565l-2.261-1.231a.394.394,0,0,0-.515.157.357.357,0,0,0,.157.515l2.261,1.231a.527.527,0,0,0,.179.045.369.369,0,0,0,.336-.2A.394.394,0,0,0,38.8,104.565Z" transform="translate(-35.966 -97.513)" fill="currentColor" stroke="#181a22" stroke-width="0.2"/>
        <path id="Path_359" data-name="Path 359" d="M345.218,103.491a.394.394,0,0,0-.515-.157l-2.284,1.231a.394.394,0,0,0-.157.515.369.369,0,0,0,.336.2.422.422,0,0,0,.179-.045l2.284-1.231A.394.394,0,0,0,345.218,103.491Z" transform="translate(-325.083 -97.513)" fill="currentColor" stroke="#181a22" stroke-width="0.2"/>
      </g>
    </g>
  </g>
</svg>
