<svg xmlns="http://www.w3.org/2000/svg" width="19.903" height="21.434" viewBox="0 0 19.903 21.434"><defs><style>.a{fill:#fff;}</style></defs><path class="a" d="M74.143,20.286a.169.169,0,0,0-.191-.191,1.736,1.736,0,0,1-1.722-1.722.191.191,0,0,0-.383,0,2.1,2.1,0,0,0,2.105,2.105A.169.169,0,0,0,74.143,20.286Zm-7.966-3.445H81.726q-3.182-3.588-3.182-9.952a3.082,3.082,0,0,0-.287-1.256A4.57,4.57,0,0,0,77.432,4.4a4.007,4.007,0,0,0-1.453-.963,5.643,5.643,0,0,0-4.055,0,4.007,4.007,0,0,0-1.453.963,4.57,4.57,0,0,0-.825,1.232,3.082,3.082,0,0,0-.287,1.256Q69.359,13.253,66.177,16.841Zm17.726,0a1.552,1.552,0,0,1-1.531,1.531H77.014a3.062,3.062,0,0,1-6.124,0H65.531A1.552,1.552,0,0,1,64,16.841a10.506,10.506,0,0,0,1.088-1.053,9.486,9.486,0,0,0,1.017-1.429,10.744,10.744,0,0,0,.891-1.9,13.957,13.957,0,0,0,.6-2.464,19.565,19.565,0,0,0,.233-3.11,4.973,4.973,0,0,1,1.4-3.379,5.914,5.914,0,0,1,3.672-1.9,1.191,1.191,0,0,1-.1-.466,1.107,1.107,0,0,1,.335-.813,1.155,1.155,0,0,1,1.627,0,1.107,1.107,0,0,1,.335.813,1.191,1.191,0,0,1-.1.466,5.914,5.914,0,0,1,3.672,1.9,4.973,4.973,0,0,1,1.4,3.379A19.565,19.565,0,0,0,80.309,10a13.959,13.959,0,0,0,.6,2.464,10.746,10.746,0,0,0,.891,1.9,9.487,9.487,0,0,0,1.017,1.429A10.506,10.506,0,0,0,83.9,16.841Z" transform="translate(-64 0)"/></svg>