<svg xmlns="http://www.w3.org/2000/svg" width="28.003" height="27.998" viewBox="0 0 28.003 27.998"><defs><style>.a{fill:currentColor;stroke:currentColor;stroke-width:0.2px;}</style></defs><g transform="translate(-4.87 -4.97)"><path class="a" d="M110.438,130.714l-4.109-2.553a.338.338,0,0,0-.46.105l-2.542,4.136a2.753,2.753,0,0,0,3.893,3.727l-.227,1.357a.333.333,0,0,0,.271.382.322.322,0,0,0,.244-.055,2.184,2.184,0,0,1,1.589-.371.332.332,0,0,0,.377-.277.32.32,0,0,0-.061-.244l-.825-1.141a2.756,2.756,0,0,0,1.849-5.067Zm-2.68,6.224.161-.964.57.792A2.557,2.557,0,0,0,107.758,136.938Zm3.007-2.785a2.088,2.088,0,0,1-2.663.786.613.613,0,0,0-.421-.039.632.632,0,0,0-.36.233,2.087,2.087,0,0,1-3.422-2.381l2.364-3.854,3.832,2.376A2.1,2.1,0,0,1,110.765,134.153Z" transform="translate(-92.517 -116.225)"/><path class="a" d="M50.531,83.824,49.1,81.366a.365.365,0,0,0-.4-.105c-.155.039-.3.133-.3.266L48.2,84.372v.044c.033.133.249.183.4.15.094-.022.155-.066.161-.155l.028-.6.969-.227.293.526c.039.078.116.089.21.066.15-.033.321-.177.293-.31A.165.165,0,0,0,50.531,83.824ZM48.8,83.354l.066-1.379.67,1.207Z" transform="translate(-40.833 -71.955)"/><path class="a" d="M359.887,345.9H358c-.155,0-.3.111-.3.2v.825c0,.111.161.2.354.2s.365-.094.365-.2v-.41h1.063v.443l-1.318,2.27a.194.194,0,0,0-.028.111c0,.216.249.365.471.365.127,0,.166-.044.183-.083l1.24-2.381a1.274,1.274,0,0,0,.161-.476V346.1C360.192,346.011,360.026,345.9,359.887,345.9Z" transform="translate(-333.194 -321.953)"/><path class="a" d="M26.366,18.852,26.311,8.83a2.011,2.011,0,0,0-2.01-2H24.29l-3.771.022-.066-.282a1.939,1.939,0,0,0-2.326-1.445L6.47,7.849a1.939,1.939,0,0,0-1.445,2.326L8.907,26.749a1.941,1.941,0,0,0,.864,1.207,1.911,1.911,0,0,0,1.019.293,1.976,1.976,0,0,0,.443-.05l1.744-.41L19,27.756a7.021,7.021,0,1,0,7.37-8.9ZM32.1,25.514H30.53A4.767,4.767,0,0,0,29.362,22.7l1.107-1.107A6.3,6.3,0,0,1,32.1,25.514Zm-6.014-6.019A6.343,6.343,0,0,1,30,21.123L28.9,22.23a4.8,4.8,0,0,0-2.813-1.168ZM24.3,7.5H24.3a1.342,1.342,0,0,1,1.346,1.34l.055,9.989a6.938,6.938,0,0,0-2.287.4L20.674,7.512ZM21.5,21.123a6.33,6.33,0,0,1,3.92-1.628v1.567a4.767,4.767,0,0,0-2.813,1.168Zm.637,1.578a4.8,4.8,0,0,0-1.168,2.813H19.4a6.343,6.343,0,0,1,1.628-3.92Zm-6.252,4.408,2.874-.67a6.5,6.5,0,0,0,.089.659Zm2.846-1.351-7.647,1.794A1.282,1.282,0,0,1,9.549,26.6L5.673,10.026A1.274,1.274,0,0,1,6.62,8.5L18.27,5.773A1.274,1.274,0,0,1,19.8,6.72l2.985,12.764A7.026,7.026,0,0,0,18.73,25.757Zm.67.421h1.567a4.767,4.767,0,0,0,1.168,2.813L21.028,30.1a6.343,6.343,0,0,1-1.628-3.92Zm6.019,6.014a6.343,6.343,0,0,1-3.92-1.628l1.107-1.107a4.8,4.8,0,0,0,2.813,1.168Zm-3.793-6.346a4.125,4.125,0,1,1,4.125,4.125A4.129,4.129,0,0,1,21.626,25.846Zm4.458,6.346V30.625A4.767,4.767,0,0,0,28.9,29.456L30,30.564A6.312,6.312,0,0,1,26.084,32.192ZM30.475,30.1l-1.107-1.107a4.8,4.8,0,0,0,1.168-2.813H32.1A6.374,6.374,0,0,1,30.475,30.1Z"/></g></svg>