<svg xmlns="http://www.w3.org/2000/svg" width="31.983" height="24.889" viewBox="0 0 31.983 24.889"><defs><style>.a,.b{fill:#3b3a3a;}.a{fill-rule:evenodd;}</style></defs><g transform="translate(3.256 4.506)"><g transform="translate(19.76 -4.506)"><path class="a" d="M103.982,395.07v3.838a.471.471,0,0,1-.5.425.466.466,0,0,1-.5-.425V395.07H99.508a.471.471,0,0,1-.508-.41v.178a.463.463,0,0,1,.508-.41h3.478v-3a.471.471,0,0,1,.5-.425.466.466,0,0,1,.5.425v3h3.478a.471.471,0,0,1,.508.41v-.178a.463.463,0,0,1-.508.41Z" transform="translate(-99 -391)"/></g><g transform="translate(-3.256 -27.879)"><g transform="translate(0 26.576)"><g transform="translate(0 0)"><path class="b" d="M176.513,159.668a2.524,2.524,0,1,0,2.524,2.524A2.524,2.524,0,0,0,176.513,159.668Zm0,3.846a1.322,1.322,0,0,1,0-2.644h0a1.322,1.322,0,1,1,0,2.644Z" transform="translate(-163.983 -152.014)"/><path class="b" d="M22.6,28.461,6.19,26.6a2.253,2.253,0,0,0-1.773.511,2.283,2.283,0,0,0-.871,1.562l-.3,2.464H2.314A2.415,2.415,0,0,0,0,33.629V45.918a2.284,2.284,0,0,0,2.222,2.343H18.81a2.466,2.466,0,0,0,2.524-2.344v-.481a3,3,0,0,0,1.142-.481,2.494,2.494,0,0,0,.871-1.622l1.382-12.2A2.434,2.434,0,0,0,22.6,28.461ZM20.132,45.918A1.265,1.265,0,0,1,18.81,47.06H2.314A1.082,1.082,0,0,1,1.2,46.01q0-.046,0-.092V43.695L5.86,40.269a1.442,1.442,0,0,1,1.863.09L11,43.244a2.825,2.825,0,0,0,1.773.661,2.734,2.734,0,0,0,1.442-.391l5.919-3.425v5.829Zm0-7.241-6.55,3.816a1.532,1.532,0,0,1-1.773-.15L8.5,39.428a2.674,2.674,0,0,0-3.335-.12L1.2,42.192V33.629a1.213,1.213,0,0,1,1.112-1.292h16.5a1.382,1.382,0,0,1,1.322,1.292v5.048Zm3.4-7.7v.012l-1.412,12.2a1.022,1.022,0,0,1-.391.811c-.12.12-.391.18-.391.24V33.629a2.584,2.584,0,0,0-2.524-2.494H4.448l.27-2.344a1.382,1.382,0,0,1,.451-.781,1.382,1.382,0,0,1,.9-.24l16.375,1.893A1.2,1.2,0,0,1,23.528,30.973Z" transform="translate(0 -26.576)"/></g></g></g></g></svg>