<svg xmlns="http://www.w3.org/2000/svg" xmlns:xlink="http://www.w3.org/1999/xlink" width="369" height="451" viewBox="0 0 369 451"><defs><style>.a,.c,.e{fill:#fff;}.b{fill:#f57e4a;}.c{font-size:20px;}.c,.d{font-family:ProximaNova-Regular, Proxima Nova;}.d,.f{fill:#707070;}.d{font-size:18px;}.e{stroke:rgba(112,112,112,0.4);}.f{font-size:16px;font-family:Helvetica;opacity:0.75;}.g,.h{opacity:0.3;}.i{fill:#b2b2b2;}.j{stroke:none;}.k{fill:none;}.l{filter:url(#a);}</style><filter id="a" x="0" y="0" width="369" height="451" filterUnits="userSpaceOnUse"><feOffset dy="3" input="SourceAlpha"/><feGaussianBlur stdDeviation="3" result="b"/><feFlood flood-opacity="0.149"/><feComposite operator="in" in2="b"/><feComposite in="SourceGraphic"/></filter></defs><g transform="translate(-3 -304)"><g class="l" transform="matrix(1, 0, 0, 1, 3, 304)"><rect class="a" width="351" height="433" rx="9" transform="translate(9 6)"/></g><g transform="translate(-8 8)"><rect class="b" width="327" height="40" rx="6" transform="translate(32 679)"/><text class="c" transform="translate(196 706)"><tspan x="-65.81" y="0">Book Visitation</tspan></text></g><text class="d" transform="translate(24 340)"><tspan x="0" y="0">Name of visiting person</tspan></text><text class="d" transform="translate(24 421)"><tspan x="0" y="0">Date of visitation</tspan></text><text class="d" transform="translate(196 421)"><tspan x="0" y="0">Time of visitation</tspan></text><text class="d" transform="translate(25 501)"><tspan x="0" y="0">Relationship</tspan></text><text class="d" transform="translate(24 581)"><tspan x="0" y="0">Purpose of visitation</tspan></text><g transform="translate(3 -23)"><g class="e" transform="translate(21 374)"><rect class="j" width="327" height="40" rx="12"/><rect class="k" x="0.5" y="0.5" width="326" height="39" rx="11.5"/></g><text class="f" transform="translate(31 401)"><tspan x="0" y="0">Name</tspan></text><g class="g" transform="translate(285.642 381.646)"><g transform="translate(35.18)"><path d="M127.27,0a6.27,6.27,0,1,0,6.27,6.27A6.277,6.277,0,0,0,127.27,0Z" transform="translate(-121)"/></g><g transform="translate(31 13.933)"><path d="M49.25,302.7a8.938,8.938,0,0,0-6.407-2.7H40.056a8.938,8.938,0,0,0-6.407,2.7A9.137,9.137,0,0,0,31,309.149a.7.7,0,0,0,.7.7H51.2a.7.7,0,0,0,.7-.7A9.137,9.137,0,0,0,49.25,302.7Z" transform="translate(-31 -300)"/></g></g></g><g transform="translate(4 -53)"><g class="e" transform="translate(20 485)"><rect class="j" width="156" height="40" rx="12"/><rect class="k" x="0.5" y="0.5" width="155" height="39" rx="11.5"/></g><text class="f" transform="translate(30 511)"><tspan x="0" y="0">31-Dec-2020</tspan></text><g class="g" transform="translate(139.235 494.318)"><g transform="translate(5.411)"><path d="M119.679,258.723a.481.481,0,0,0-.482-.481h-1.681a.481.481,0,0,0-.481.481V260.4a.482.482,0,0,0,.481.482H119.2a.482.482,0,0,0,.482-.482v-1.681Z" transform="translate(-112.182 -247.014)"/><path d="M216.314,258.723a.481.481,0,0,0-.481-.481h-1.681a.481.481,0,0,0-.481.481V260.4a.482.482,0,0,0,.481.482h1.681a.482.482,0,0,0,.481-.482Z" transform="translate(-204.615 -247.014)"/><path d="M312.942,258.723a.481.481,0,0,0-.481-.481H310.78a.481.481,0,0,0-.482.481V260.4a.482.482,0,0,0,.482.482h1.681a.482.482,0,0,0,.481-.482Z" transform="translate(-297.042 -247.014)"/><path d="M119.679,355.357a.481.481,0,0,0-.482-.482h-1.681a.481.481,0,0,0-.481.482v1.681a.481.481,0,0,0,.481.481H119.2a.482.482,0,0,0,.482-.481v-1.681Z" transform="translate(-112.182 -339.445)"/><path d="M216.314,355.357a.481.481,0,0,0-.481-.482h-1.681a.481.481,0,0,0-.481.482v1.681a.481.481,0,0,0,.481.481h1.681a.481.481,0,0,0,.481-.481Z" transform="translate(-204.615 -339.445)"/><path d="M312.942,355.357a.481.481,0,0,0-.481-.482H310.78a.481.481,0,0,0-.482.482v1.681a.481.481,0,0,0,.482.481h1.681a.481.481,0,0,0,.481-.481v-1.681Z" transform="translate(-297.042 -339.445)"/><path d="M24.317,54.151v2.567a2.1,2.1,0,0,1-2.1,2.1H20.89a2.108,2.108,0,0,1-2.114-2.1V54.142H12.8v2.577a2.108,2.108,0,0,1-2.114,2.1H9.36a2.1,2.1,0,0,1-2.1-2.1V54.151a1.911,1.911,0,0,0-1.847,1.9V71.1a1.912,1.912,0,0,0,1.9,1.914H24.262a1.914,1.914,0,0,0,1.9-1.914V56.052A1.911,1.911,0,0,0,24.317,54.151ZM23.7,70.162a.823.823,0,0,1-.822.822H8.66a.823.823,0,0,1-.822-.822V62.39a.823.823,0,0,1,.822-.823H22.879a.823.823,0,0,1,.822.823v7.772Z" transform="translate(-5.411 -51.788)"/><path d="M80.271,5.65h1.311a.72.72,0,0,0,.721-.72V.721A.721.721,0,0,0,81.582,0H80.271a.721.721,0,0,0-.721.721V4.93A.72.72,0,0,0,80.271,5.65Z" transform="translate(-76.327)"/><path d="M345.179,5.65h1.311a.72.72,0,0,0,.721-.72V.721A.721.721,0,0,0,346.49,0h-1.311a.721.721,0,0,0-.721.721V4.93A.72.72,0,0,0,345.179,5.65Z" transform="translate(-329.717)"/></g></g></g><g transform="translate(169 -53)"><g class="e" transform="translate(26 485)"><rect class="j" width="156" height="40" rx="12"/><rect class="k" x="0.5" y="0.5" width="155" height="39" rx="11.5"/></g><text class="f" transform="translate(36 512)"><tspan x="0" y="0">03:00 PM</tspan></text><path class="h" d="M10.28,0a10.28,10.28,0,1,0,10.28,10.28A10.291,10.291,0,0,0,10.28,0Zm4.889,15.6a.856.856,0,0,1-1.211,0L9.674,11.314a.853.853,0,0,1-.251-.606V5.14a.857.857,0,1,1,1.713,0v5.214l4.032,4.032a.856.856,0,0,1,0,1.211Zm0,0" transform="translate(151 495)"/></g><g transform="translate(-2 27)"><g class="e" transform="translate(26 485)"><rect class="j" width="156" height="40" rx="12"/><rect class="k" x="0.5" y="0.5" width="155" height="39" rx="11.5"/></g><text class="f" transform="translate(36 512)"><tspan x="0" y="0">eg. Son</tspan></text><g transform="translate(149.91 461.682)"><g transform="translate(0 35.514)"><path class="i" d="M14.984,35.514h0a5.877,5.877,0,0,0-4.527,2.091A5.8,5.8,0,0,0,5.93,35.514,5.93,5.93,0,0,0,0,41.444c0,5.612,9.8,11.092,10.192,11.3a.477.477,0,0,0,.529,0c.4-.212,10.192-5.612,10.192-11.3A5.93,5.93,0,0,0,14.984,35.514Z" transform="translate(0 -35.514)"/></g></g></g><g transform="translate(4 -15)"><g class="e" transform="translate(20 607)"><rect class="j" width="327" height="80" rx="12"/><rect class="k" x="0.5" y="0.5" width="326" height="79" rx="11.5"/></g><text class="f" transform="translate(30 632)"><tspan x="0" y="0">Eg. Visiting for meeting</tspan></text></g></g></svg>