<svg xmlns="http://www.w3.org/2000/svg" width="29.45" height="29.45" viewBox="0 0 29.45 29.45"><defs><style>.a{fill:#fff;}</style></defs><g transform="translate(-2.275 -2.275)"><path class="a" d="M29.2,14.112l-3.806-3.805V4.925a.866.866,0,0,0-.866-.866H19.143L15.338.254a.866.866,0,0,0-1.225,0L10.307,4.059H4.925a.866.866,0,0,0-.866.866v5.382L.254,14.112a.866.866,0,0,0,0,1.225l3.805,3.805v5.382a.866.866,0,0,0,.866.866h5.382L14.113,29.2a.866.866,0,0,0,1.225,0l3.805-3.806h5.382a.866.866,0,0,0,.866-.866V19.143L29.2,15.337a.866.866,0,0,0,0-1.225Zm-4.418,4.059a.866.866,0,0,0-.254.612v5.74H18.784a.866.866,0,0,0-.612.254l-3.447,3.447-3.447-3.447a.866.866,0,0,0-.612-.254H4.925v-5.74a.866.866,0,0,0-.254-.612L1.225,14.725l3.447-3.447a.866.866,0,0,0,.254-.612V4.925h5.741a.866.866,0,0,0,.612-.254l3.447-3.447,3.447,3.447a.866.866,0,0,0,.612.254h5.741v5.74a.866.866,0,0,0,.254.612l3.447,3.447Z" transform="translate(2.275 2.275)"/><path class="a" d="M93.725,99.736a.109.109,0,0,0,.095-.15l-.7-1.748a.109.109,0,0,0-.167-.047c-.109.081-.232.16-.363.244a3.021,3.021,0,0,0-.755.6.109.109,0,0,0-.012.117c.592,1.2.366,3.072.184,4.579-.042.35-.082.681-.109.979a1.7,1.7,0,0,1-1.8,1.547,1.549,1.549,0,0,1-1.362-.664,1.689,1.689,0,0,1,.174-1.691.109.109,0,0,0-.008-.119.122.122,0,0,0-.1-.049,4.179,4.179,0,0,0-1.354,2.658c-.029.615.211,1.374,1.524,1.5.116.011.239.017.365.017,1.272,0,3.349-.617,3.507-2.271.023-.242.035-.636.05-1.091C92.935,102.727,93.027,99.778,93.725,99.736Z" transform="translate(-79.517 -88.599)"/><path class="a" d="M157.807,108.769a2.683,2.683,0,0,1-1.528-.716c-.172-.152-.347-.315-.516-.472a11.006,11.006,0,0,0-1.524-1.256.756.756,0,0,0-.413-.119,2.08,2.08,0,0,0-1.635,1.566.447.447,0,0,0,.315.546.11.11,0,0,0,.118-.041c.24-.327.472-.486.707-.486.328,0,.675.305,1.042.628.152.134.308.271.473.4a13.2,13.2,0,0,1-1.558.105c-.876,0-1.932-.131-1.987-.755a14.348,14.348,0,0,1,.3-3.549c.1-.622.212-1.265.271-1.882a.11.11,0,0,0-.166-.1,4.821,4.821,0,0,0-1.9,2.748,8.691,8.691,0,0,1-1.086,2.174,7.749,7.749,0,0,0-2.477-4.959.11.11,0,0,0-.179.059c-.043.2-.1.392-.147.581-.262.972-.509,1.889.637,2.579a.109.109,0,0,0,.166-.084l.012-.131a6.789,6.789,0,0,1,1.194,2.79,6.442,6.442,0,0,1-1.182.728,4.707,4.707,0,0,0-1.406.952.11.11,0,0,0,0,.142,1.793,1.793,0,0,0,1.329.694c1.632,0,3.093-2.772,3.76-4.261l-.01.062c-.251,1.613-.51,3.28,1.474,3.8l.023,0c.18.008.377.012.587.012h0c.8,0,4.8-.078,5.391-1.609a.109.109,0,0,0-.088-.148Z" transform="translate(-131.051 -92.874)"/><path class="a" d="M113.964,195.927h-1v-1.373h-.713v3.432h.713v-1.443h1v1.443h.713v-3.432h-.713Z" transform="translate(-101.61 -174.789)"/><path class="a" d="M138.073,194.474l-.858,3.44h.765l.163-.739h.84l.167.739h.761l-.858-3.44Zm.207,2.085.282-1.263.282,1.263Z" transform="translate(-123.841 -174.718)"/><path class="a" d="M165.383,194.554h-.713v3.432h1.98v-.616h-1.267Z" transform="translate(-148.29 -174.789)"/><path class="a" d="M184.782,194.474l-.858,3.44h.766l.163-.739h.84l.167.739h.761l-.858-3.44Zm.207,2.085.282-1.263.282,1.263Z" transform="translate(-165.436 -174.718)"/><path class="a" d="M212.092,194.554h-.713v3.432h1.98v-.616h-1.267Z" transform="translate(-189.886 -174.789)"/></g></svg>