<svg xmlns="http://www.w3.org/2000/svg" width="23.528" height="19.66" viewBox="0 0 23.528 19.66"><defs><style>.a{fill:currentColor;}</style></defs><g transform="translate(0 -4.057)"><g transform="translate(0 4.057)"><g transform="translate(0 0)"><path class="a" d="M23.277,37.875,12.125,27.941a.526.526,0,0,0-.722,0L.25,37.875a.853.853,0,0,0-.132,1.039.544.544,0,0,0,.854.161l10.792-9.612,10.792,9.612a.539.539,0,0,0,.361.144.583.583,0,0,0,.494-.3A.853.853,0,0,0,23.277,37.875Z" transform="translate(0.001 -27.798)"/></g></g><g transform="translate(3.156 13.331)"><g transform="translate(0 0)"><path class="a" d="M73.095,232.543a.562.562,0,0,0-.574.549v8.739H67.93v-4.77a2.872,2.872,0,0,0-5.739,0v4.77H57.6v-8.739a.574.574,0,0,0-1.148,0v9.288a.562.562,0,0,0,.574.549h5.739a.564.564,0,0,0,.572-.506.4.4,0,0,0,0-.043v-5.319a1.724,1.724,0,0,1,3.444,0v5.319a.385.385,0,0,0,0,.042.564.564,0,0,0,.572.507h5.739a.562.562,0,0,0,.574-.549v-9.288A.562.562,0,0,0,73.095,232.543Z" transform="translate(-56.452 -232.543)"/></g></g></g></svg>