<svg xmlns="http://www.w3.org/2000/svg" width="23.707" height="25" viewBox="0 0 23.707 25"><defs><style>.a{fill:#616d2f;}</style></defs><path class="a" d="M25.207,15.086a1.828,1.828,0,0,0-1.17-1.825,2.154,2.154,0,0,0-1.416-3.779H16.429l.314-1.47a14.964,14.964,0,0,0,.05-4.824C16.569,1.684,15.238,0,13.79,0h-.1C13,0,11.845.392,11.845,3.017c0,3.458-.863,5.041-1.587,5.759a2.225,2.225,0,0,1-1.431.707H8.4V8.621H1.5V25H8.4v-.862H20.466a2.154,2.154,0,0,0,1.694-3.486A2.154,2.154,0,0,0,23.453,17.2,2.158,2.158,0,0,0,25.207,15.086ZM2.362,24.138V9.483H7.535V24.138Zm20.69-7.759H18.31a.431.431,0,0,0,0,.862h3.448a1.293,1.293,0,1,1,0,2.586h-4.31a.431.431,0,1,0,0,.862h3.017a1.293,1.293,0,0,1,0,2.586H8.4V10.345h.418a2.95,2.95,0,0,0,2.018-.924c1.244-1.205,1.875-3.359,1.875-6.4,0-.8.127-2.155.98-2.155h.1c.962,0,1.986,1.349,2.15,2.453a14.042,14.042,0,0,1-.04,4.517l-.537,2.513h7.258a1.293,1.293,0,0,1,0,2.586H18.31a.431.431,0,0,0,0,.862h3.017a14.7,14.7,0,0,1,1.661.083c1.125.167,1.356.6,1.356,1.21A1.3,1.3,0,0,1,23.052,16.379Z" transform="translate(-1.5)"/></svg>