<svg xmlns="http://www.w3.org/2000/svg" width="29.998" height="29.998" viewBox="0 0 29.998 29.998"><defs><style>.a{fill:#fff;}</style></defs><g transform="translate(-7.999 -8)"><g transform="translate(14.289 8)"><path class="a" d="M127.725,38H113.693A1.7,1.7,0,0,1,112,36.3V9.693A1.7,1.7,0,0,1,113.693,8h14.031a1.7,1.7,0,0,1,1.693,1.693V36.3A1.7,1.7,0,0,1,127.725,38ZM113.693,8.968a.727.727,0,0,0-.726.726V36.3a.727.727,0,0,0,.726.726h14.031a.727.727,0,0,0,.726-.726V9.693a.727.727,0,0,0-.726-.726Z" transform="translate(-112 -8)"/><path class="a" d="M198.774,10.9h-5.806a.484.484,0,0,1-.469-.366L192.015,8.6a.484.484,0,0,1,.469-.6h6.774a.484.484,0,0,1,.469.6l-.484,1.935A.484.484,0,0,1,198.774,10.9Zm-5.428-.968H198.4l.242-.968H193.1Z" transform="translate(-187.162 -8)"/></g><path class="a" d="M206.29,456.968h-5.806a.484.484,0,1,1,0-.968h5.806a.484.484,0,1,1,0,.968Z" transform="translate(-180.388 -420.905)"/><path class="a" d="M8.483,93.545a.484.484,0,0,1-.342-.826L12.5,88.365a.484.484,0,0,1,.652-.03l2.564,2.136,5.01-5.01a.484.484,0,0,1,.684,0l2.561,2.561,4.98-4.98a.484.484,0,0,1,.684,0l2.546,2.546,4.981-5.434a.484.484,0,1,1,.714.654l-5.322,5.806a.484.484,0,0,1-.7.015l-2.561-2.561-4.98,4.98a.484.484,0,0,1-.684,0l-2.561-2.561-4.98,4.98a.484.484,0,0,1-.652.03l-2.564-2.136L8.825,93.4a.482.482,0,0,1-.342.142Z" transform="translate(0 -67.643)"/><path class="a" d="M186.419,333.322h-1.935a.484.484,0,0,1-.484-.484v-4.355a.484.484,0,0,1,.484-.484h1.935a.484.484,0,0,1,.484.484v4.355A.484.484,0,0,1,186.419,333.322Zm-1.452-.968h.968v-3.387h-.968Z" transform="translate(-165.356 -300.647)"/><path class="a" d="M242.419,303.258h-1.935a.484.484,0,0,1-.484-.484v-6.29a.484.484,0,0,1,.484-.484h1.935a.484.484,0,0,1,.484.484v6.29A.484.484,0,0,1,242.419,303.258Zm-1.452-.968h.968v-5.322h-.968Z" transform="translate(-217.969 -270.582)"/><path class="a" d="M298.419,273.193h-1.935a.484.484,0,0,1-.484-.484v-8.225a.484.484,0,0,1,.484-.484h1.935a.484.484,0,0,1,.484.484v8.225A.484.484,0,0,1,298.419,273.193Zm-1.451-.968h.968v-7.258h-.968Z" transform="translate(-270.582 -240.517)"/><path class="a" d="M171.128,282.161H160.484a.484.484,0,0,1-.484-.484v-9.193a.484.484,0,1,1,.968,0v8.709h10.161a.484.484,0,0,1,0,.968Z" transform="translate(-142.808 -248.033)"/></g></svg>