<svg id="user" xmlns="http://www.w3.org/2000/svg" xmlns:xlink="http://www.w3.org/1999/xlink" width="25" height="25" viewBox="0 0 25 25">
  <defs>
    <linearGradient id="linear-gradient" x1="0.5" x2="0.5" y2="1" gradientUnits="objectBoundingBox">
      <stop offset="0" stop-color="#2cbb55"/>
      <stop offset="1" stop-color="#3397f8"/>
    </linearGradient>
  </defs>
  <g id="Group_1" data-name="Group 1" transform="translate(0)">
    <path id="Path_1" data-name="Path 1" d="M21.339,16.161a12.452,12.452,0,0,0-4.75-2.979,7.227,7.227,0,1,0-8.178,0A12.52,12.52,0,0,0,0,25H1.953a10.547,10.547,0,1,1,21.094,0H25A12.419,12.419,0,0,0,21.339,16.161ZM12.5,12.5a5.273,5.273,0,1,1,5.273-5.273A5.279,5.279,0,0,1,12.5,12.5Z" transform="translate(0)" fill="url(#linear-gradient)"/>
  </g>
</svg>
