<svg xmlns="http://www.w3.org/2000/svg" width="24.519" height="24.519" viewBox="0 0 24.519 24.519"><defs><style>.a{fill:currentColor;}</style></defs><path class="a" d="M13.029,24.519H11.49a2.26,2.26,0,0,1-2.257-2.257v-.521A9.9,9.9,0,0,1,7.7,21.1l-.369.369a2.257,2.257,0,0,1-3.192,0L3.047,20.384a2.257,2.257,0,0,1,0-3.192l.369-.369a9.9,9.9,0,0,1-.638-1.537H2.257A2.26,2.26,0,0,1,0,13.029V11.49A2.26,2.26,0,0,1,2.257,9.233h.521A9.9,9.9,0,0,1,3.416,7.7l-.369-.369a2.257,2.257,0,0,1,0-3.192L4.135,3.047a2.257,2.257,0,0,1,3.192,0l.369.369a9.908,9.908,0,0,1,1.537-.638V2.257A2.26,2.26,0,0,1,11.49,0h1.539a2.26,2.26,0,0,1,2.257,2.257v.521a9.9,9.9,0,0,1,1.537.638l.369-.369a2.257,2.257,0,0,1,3.192,0l1.088,1.088a2.257,2.257,0,0,1,0,3.192L21.1,7.7a9.9,9.9,0,0,1,.638,1.537h.521a2.26,2.26,0,0,1,2.257,2.257v1.539a2.26,2.26,0,0,1-2.257,2.257h-.521a9.9,9.9,0,0,1-.638,1.537l.369.369a2.257,2.257,0,0,1,0,3.192l-1.088,1.088a2.257,2.257,0,0,1-3.192,0l-.369-.369a9.907,9.907,0,0,1-1.537.638v.521A2.26,2.26,0,0,1,13.029,24.519ZM7.936,19.594a8.467,8.467,0,0,0,2.195.911.718.718,0,0,1,.539.7v1.061a.821.821,0,0,0,.821.82h1.539a.821.821,0,0,0,.821-.82V21.2a.718.718,0,0,1,.539-.7,8.467,8.467,0,0,0,2.195-.911.718.718,0,0,1,.874.11l.751.751a.82.82,0,0,0,1.16,0l1.088-1.088a.82.82,0,0,0,0-1.16l-.752-.752a.718.718,0,0,1-.11-.874,8.466,8.466,0,0,0,.911-2.195.718.718,0,0,1,.7-.539h1.061a.821.821,0,0,0,.821-.82V11.49a.821.821,0,0,0-.821-.82H21.2a.718.718,0,0,1-.7-.539,8.467,8.467,0,0,0-.911-2.195.718.718,0,0,1,.11-.874l.751-.751a.82.82,0,0,0,0-1.16L19.368,4.063a.82.82,0,0,0-1.16,0l-.752.752a.718.718,0,0,1-.874.11,8.467,8.467,0,0,0-2.195-.911.718.718,0,0,1-.539-.7V2.257a.821.821,0,0,0-.821-.82H11.49a.821.821,0,0,0-.821.82V3.318a.718.718,0,0,1-.539.7,8.467,8.467,0,0,0-2.195.911.718.718,0,0,1-.874-.11l-.751-.751a.82.82,0,0,0-1.16,0L4.063,5.151a.82.82,0,0,0,0,1.16l.752.752a.718.718,0,0,1,.11.874,8.466,8.466,0,0,0-.911,2.195.718.718,0,0,1-.7.539H2.257a.822.822,0,0,0-.821.821v1.539a.821.821,0,0,0,.821.82H3.318a.718.718,0,0,1,.7.539,8.467,8.467,0,0,0,.911,2.195.718.718,0,0,1-.11.874l-.751.751a.82.82,0,0,0,0,1.16l1.088,1.088a.82.82,0,0,0,1.16,0l.752-.752a.722.722,0,0,1,.874-.11Z" transform="translate(0 0)"/><path class="a" d="M149.935,155.27a5.335,5.335,0,1,1,5.335-5.335A5.341,5.341,0,0,1,149.935,155.27Zm0-9.233a3.9,3.9,0,1,0,3.9,3.9A3.9,3.9,0,0,0,149.935,146.037Z" transform="translate(-137.675 -137.675)"/></svg>