<svg xmlns="http://www.w3.org/2000/svg" width="25" height="25" viewBox="0 0 25 25"><defs><style>.a{fill:#616d2f;}</style></defs><path class="a" d="M0,12.5A12.5,12.5,0,1,1,12.5,25,12.515,12.515,0,0,1,0,12.5Zm.833,0A11.667,11.667,0,1,0,12.5.833,11.68,11.68,0,0,0,.833,12.5Zm12.588,5.1-5-3.664a2.133,2.133,0,1,1,0-3.7l5-3.665a2.126,2.126,0,1,1,.085.818L8.99,10.7a2.121,2.121,0,0,1,0,2.77l4.518,3.313a2.134,2.134,0,1,1-.086.818Zm.7-.187a1.422,1.422,0,1,0,1.421-1.421A1.423,1.423,0,0,0,14.123,17.412ZM5.952,12.083a1.421,1.421,0,1,0,1.421-1.421A1.422,1.422,0,0,0,5.952,12.083Zm8.171-5.329a1.422,1.422,0,1,0,1.421-1.421A1.423,1.423,0,0,0,14.123,6.754Z"/></svg>